<svg xmlns="http://www.w3.org/2000/svg" width="1024" height="1024" viewBox="0 0 1024 1024" role="img" aria-label="Minutia">
  <title>Minutia</title>
  <!--
    Minutia macOS app icon. A rising waveform (paper on warm ink) whose signal
    resolves into a vermilion checkmark: spoken meeting becomes tracked commitment.
    Palette: ink #130E0D, paper #F7F7F7, vermilion #E23A00. Tile is a macOS
    superellipse squircle (n=5) on the standard grid with ~10% transparent margin.
  -->
  <path fill="#130E0D" d="M924.00 512.00 L923.94 607.95 L923.77 638.60 L923.49 660.85 L923.10 678.95 L922.59 694.46 L921.96 708.17 L921.23 720.52 L920.37 731.81 L919.41 742.23 L918.33 751.94 L917.13 761.02 L915.81 769.57 L914.38 777.64 L912.83 785.29 L911.16 792.56 L909.36 799.49 L907.45 806.10 L905.41 812.41 L903.25 818.45 L900.96 824.24 L898.55 829.78 L896.00 835.10 L893.32 840.21 L890.51 845.11 L887.56 849.81 L884.48 854.33 L881.25 858.67 L877.87 862.83 L874.34 866.83 L870.67 870.67 L866.83 874.34 L862.83 877.87 L858.67 881.25 L854.33 884.48 L849.81 887.56 L845.11 890.51 L840.21 893.32 L835.10 896.00 L829.78 898.55 L824.24 900.96 L818.45 903.25 L812.41 905.41 L806.10 907.45 L799.49 909.36 L792.56 911.16 L785.29 912.83 L777.64 914.38 L769.57 915.81 L761.02 917.13 L751.94 918.33 L742.23 919.41 L731.81 920.37 L720.52 921.23 L708.17 921.96 L694.46 922.59 L678.95 923.10 L660.85 923.49 L638.60 923.77 L607.95 923.94 L512.00 924.00 L416.05 923.94 L385.40 923.77 L363.15 923.49 L345.05 923.10 L329.54 922.59 L315.83 921.96 L303.48 921.23 L292.19 920.37 L281.77 919.41 L272.06 918.33 L262.98 917.13 L254.43 915.81 L246.36 914.38 L238.71 912.83 L231.44 911.16 L224.51 909.36 L217.90 907.45 L211.59 905.41 L205.55 903.25 L199.76 900.96 L194.22 898.55 L188.90 896.00 L183.79 893.32 L178.89 890.51 L174.19 887.56 L169.67 884.48 L165.33 881.25 L161.17 877.87 L157.17 874.34 L153.33 870.67 L149.66 866.83 L146.13 862.83 L142.75 858.67 L139.52 854.33 L136.44 849.81 L133.49 845.11 L130.68 840.21 L128.00 835.10 L125.45 829.78 L123.04 824.24 L120.75 818.45 L118.59 812.41 L116.55 806.10 L114.64 799.49 L112.84 792.56 L111.17 785.29 L109.62 777.64 L108.19 769.57 L106.87 761.02 L105.67 751.94 L104.59 742.23 L103.63 731.81 L102.77 720.52 L102.04 708.17 L101.41 694.46 L100.90 678.95 L100.51 660.85 L100.23 638.60 L100.06 607.95 L100.00 512.00 L100.06 416.05 L100.23 385.40 L100.51 363.15 L100.90 345.05 L101.41 329.54 L102.04 315.83 L102.77 303.48 L103.63 292.19 L104.59 281.77 L105.67 272.06 L106.87 262.98 L108.19 254.43 L109.62 246.36 L111.17 238.71 L112.84 231.44 L114.64 224.51 L116.55 217.90 L118.59 211.59 L120.75 205.55 L123.04 199.76 L125.45 194.22 L128.00 188.90 L130.68 183.79 L133.49 178.89 L136.44 174.19 L139.52 169.67 L142.75 165.33 L146.13 161.17 L149.66 157.17 L153.33 153.33 L157.17 149.66 L161.17 146.13 L165.33 142.75 L169.67 139.52 L174.19 136.44 L178.89 133.49 L183.79 130.68 L188.90 128.00 L194.22 125.45 L199.76 123.04 L205.55 120.75 L211.59 118.59 L217.90 116.55 L224.51 114.64 L231.44 112.84 L238.71 111.17 L246.36 109.62 L254.43 108.19 L262.98 106.87 L272.06 105.67 L281.77 104.59 L292.19 103.63 L303.48 102.77 L315.83 102.04 L329.54 101.41 L345.05 100.90 L363.15 100.51 L385.40 100.23 L416.05 100.06 L512.00 100.00 L607.95 100.06 L638.60 100.23 L660.85 100.51 L678.95 100.90 L694.46 101.41 L708.17 102.04 L720.52 102.77 L731.81 103.63 L742.23 104.59 L751.94 105.67 L761.02 106.87 L769.57 108.19 L777.64 109.62 L785.29 111.17 L792.56 112.84 L799.49 114.64 L806.10 116.55 L812.41 118.59 L818.45 120.75 L824.24 123.04 L829.78 125.45 L835.10 128.00 L840.21 130.68 L845.11 133.49 L849.81 136.44 L854.33 139.52 L858.67 142.75 L862.83 146.13 L866.83 149.66 L870.67 153.33 L874.34 157.17 L877.87 161.17 L881.25 165.33 L884.48 169.67 L887.56 174.19 L890.51 178.89 L893.32 183.79 L896.00 188.90 L898.55 194.22 L900.96 199.76 L903.25 205.55 L905.41 211.59 L907.45 217.90 L909.36 224.51 L911.16 231.44 L912.83 238.71 L914.38 246.36 L915.81 254.43 L917.13 262.98 L918.33 272.06 L919.41 281.77 L920.37 292.19 L921.23 303.48 L921.96 315.83 L922.59 329.54 L923.10 345.05 L923.49 363.15 L923.77 385.40 L923.94 416.05 L924.00 512.00 Z"/>
  <g fill="#F7F7F7">
    <rect x="202" y="437" width="72" height="150" rx="36"/>
    <rect x="316" y="392" width="72" height="240" rx="36"/>
    <rect x="430" y="342" width="72" height="340" rx="36"/>
  </g>
  <path d="M552 545 L628 650 L806 332" fill="none" stroke="#E23A00" stroke-width="84" stroke-linecap="round" stroke-linejoin="round"/>
</svg>
